<svg width="50" height="50" viewBox="0 0 50 50" fill="none" xmlns="http://www.w3.org/2000/svg">
<path d="M25 46.875C12.9199 46.875 3.125 37.0801 3.125 25C3.125 12.9199 12.9199 3.125 25 3.125C37.0801 3.125 46.875 12.9199 46.875 25C46.875 37.0801 37.0801 46.875 25 46.875ZM21.0938 17.5781C21.0938 17.3633 20.918 17.1875 20.7031 17.1875H18.3594C18.1445 17.1875 17.9688 17.3633 17.9688 17.5781V32.4219C17.9688 32.6367 18.1445 32.8125 18.3594 32.8125H20.7031C20.918 32.8125 21.0938 32.6367 21.0938 32.4219V17.5781ZM32.0312 17.5781C32.0312 17.3633 31.8555 17.1875 31.6406 17.1875H29.2969C29.082 17.1875 28.9062 17.3633 28.9062 17.5781V32.4219C28.9062 32.6367 29.082 32.8125 29.2969 32.8125H31.6406C31.8555 32.8125 32.0312 32.6367 32.0312 32.4219V17.5781Z" fill="black"/>
</svg>
